# Tiled2Unity generated file. Do not modify by hand.
# Wavefront file for 'Primer-mapa_mesh_0002.obj'

# Vertices (Count = 140)
v -16 -77 0
v -17 -77 0
v -17 -76 0
v -16 -76 0
v -17 -77 0
v -18 -77 0
v -18 -76 0
v -17 -76 0
v -18 -77 0
v -19 -77 0
v -19 -76 0
v -18 -76 0
v -19 -77 0
v -20 -77 0
v -20 -76 0
v -19 -76 0
v -20 -77 0
v -21 -77 0
v -21 -76 0
v -20 -76 0
v -21 -77 0
v -22 -77 0
v -22 -76 0
v -21 -76 0
v -14 -80 0
v -15 -80 0
v -15 -79 0
v -14 -79 0
v -15 -80 0
v -16 -80 0
v -16 -79 0
v -15 -79 0
v -16 -80 0
v -17 -80 0
v -17 -79 0
v -16 -79 0
v -17 -80 0
v -18 -80 0
v -18 -79 0
v -17 -79 0
v -18 -80 0
v -19 -80 0
v -19 -79 0
v -18 -79 0
v -19 -80 0
v -20 -80 0
v -20 -79 0
v -19 -79 0
v -20 -80 0
v -21 -80 0
v -21 -79 0
v -20 -79 0
v -56 -83 0
v -57 -83 0
v -57 -82 0
v -56 -82 0
v -57 -83 0
v -58 -83 0
v -58 -82 0
v -57 -82 0
v -58 -83 0
v -59 -83 0
v -59 -82 0
v -58 -82 0
v -59 -83 0
v -60 -83 0
v -60 -82 0
v -59 -82 0
v -60 -83 0
v -61 -83 0
v -61 -82 0
v -60 -82 0
v -61 -83 0
v -62 -83 0
v -62 -82 0
v -61 -82 0
v -62 -83 0
v -63 -83 0
v -63 -82 0
v -62 -82 0
v -63 -83 0
v -64 -83 0
v -64 -82 0
v -63 -82 0
v -64 -83 0
v -65 -83 0
v -65 -82 0
v -64 -82 0
v -65 -83 0
v -66 -83 0
v -66 -82 0
v -65 -82 0
v -66 -83 0
v -67 -83 0
v -67 -82 0
v -66 -82 0
v -67 -83 0
v -68 -83 0
v -68 -82 0
v -67 -82 0
v -68 -83 0
v -69 -83 0
v -69 -82 0
v -68 -82 0
v -69 -83 0
v -70 -83 0
v -70 -82 0
v -69 -82 0
v -70 -83 0
v -71 -83 0
v -71 -82 0
v -70 -82 0
v -71 -83 0
v -72 -83 0
v -72 -82 0
v -71 -82 0
v -74 -83 0
v -75 -83 0
v -75 -82 0
v -74 -82 0
v -75 -83 0
v -76 -83 0
v -76 -82 0
v -75 -82 0
v -76 -83 0
v -77 -83 0
v -77 -82 0
v -76 -82 0
v -77 -83 0
v -78 -83 0
v -78 -82 0
v -77 -82 0
v -78 -83 0
v -79 -83 0
v -79 -82 0
v -78 -82 0
v -79 -83 0
v -80 -83 0
v -80 -82 0
v -79 -82 0

# Texture cooridinates (Count = 24)
vt 0.8541667 0.7875
vt 0.9208333 0.7875
vt 0.9208333 0.8375
vt 0.8541667 0.8375
vt 0.7833334 0.7875
vt 0.85 0.7875
vt 0.85 0.8375
vt 0.7833334 0.8375
vt 0.925 0.7875
vt 0.9916667 0.7875
vt 0.9916667 0.8375
vt 0.925 0.8375
vt 0.6416667 0.628125
vt 0.7083333 0.628125
vt 0.7083333 0.678125
vt 0.6416667 0.678125
vt 0.5708333 0.628125
vt 0.6375 0.628125
vt 0.6375 0.678125
vt 0.5708333 0.678125
vt 0.7125 0.628125
vt 0.7791666 0.628125
vt 0.7791666 0.678125
vt 0.7125 0.678125

# Normal
vn 0 0 -1

# Mesh description
g Primer-mapa_mesh_0002

# Faces
f 1/1/1 2/2/1 3/3/1 4/4/1
f 5/5/1 6/6/1 7/7/1 8/8/1
f 9/1/1 10/2/1 11/3/1 12/4/1
f 13/9/1 14/10/1 15/11/1 16/12/1
f 17/5/1 18/6/1 19/7/1 20/8/1
f 21/9/1 22/10/1 23/11/1 24/12/1
f 25/13/1 26/14/1 27/15/1 28/16/1
f 29/13/1 30/14/1 31/15/1 32/16/1
f 33/17/1 34/18/1 35/19/1 36/20/1
f 37/17/1 38/18/1 39/19/1 40/20/1
f 41/13/1 42/14/1 43/15/1 44/16/1
f 45/17/1 46/18/1 47/19/1 48/20/1
f 49/17/1 50/18/1 51/19/1 52/20/1
f 53/17/1 54/18/1 55/19/1 56/20/1
f 57/13/1 58/14/1 59/15/1 60/16/1
f 61/21/1 62/22/1 63/23/1 64/24/1
f 65/17/1 66/18/1 67/19/1 68/20/1
f 69/13/1 70/14/1 71/15/1 72/16/1
f 73/17/1 74/18/1 75/19/1 76/20/1
f 77/13/1 78/14/1 79/15/1 80/16/1
f 81/17/1 82/18/1 83/19/1 84/20/1
f 85/13/1 86/14/1 87/15/1 88/16/1
f 89/21/1 90/22/1 91/23/1 92/24/1
f 93/17/1 94/18/1 95/19/1 96/20/1
f 97/13/1 98/14/1 99/15/1 100/16/1
f 101/21/1 102/22/1 103/23/1 104/24/1
f 105/17/1 106/18/1 107/19/1 108/20/1
f 109/13/1 110/14/1 111/15/1 112/16/1
f 113/21/1 114/22/1 115/23/1 116/24/1
f 117/17/1 118/18/1 119/19/1 120/20/1
f 121/13/1 122/14/1 123/15/1 124/16/1
f 125/21/1 126/22/1 127/23/1 128/24/1
f 129/17/1 130/18/1 131/19/1 132/20/1
f 133/13/1 134/14/1 135/15/1 136/16/1
f 137/21/1 138/22/1 139/23/1 140/24/1

